<?xml version="1.0" encoding="utf-8"?>
<svg viewBox="0 0 128 128" xmlns="http://www.w3.org/2000/svg">
  <g transform="matrix(0.10000000149011612, 0, 0, -0.10000000149011612, 0, 127.99999999999999)" fill="#000000" stroke="none">
    <path d="M597 1002 c-21 -23 -21 -41 -2 -62 14 -16 14 -24 0 -87 -31 -137 -75&#10;-166 -149 -98 -33 30 -37 38 -31 65 5 23 2 37 -11 51 -21 23 -37 24 -58 3 -24&#10;-24 -20 -61 10 -81 24 -15 26 -21 20 -61 -3 -25 -11 -51 -17 -58 -30 -36 -137&#10;8 -151 62 -9 34 -30 48 -59 39 -39 -13 -30 -85 10 -85 19 0 66 -95 143 -290&#10;16 -41 33 -78 37 -82 4 -4 21 -4 39 1 78 23 259 33 379 22 66 -6 133 -14 150&#10;-17 30 -6 30 -6 67 93 77 202 116 281 141 287 45 11 44 81 -1 92 -30 8 -54&#10;-11 -54 -42 0 -32 -71 -84 -115 -84 -24 0 -34 6 -43 25 -19 42 -15 98 8 113&#10;29 18 26 60 -6 74 -38 18 -59 0 -59 -51 -1 -32 -7 -48 -30 -70 -44 -43 -70&#10;-47 -98 -17 -33 36 -74 173 -58 198 17 27 13 56 -8 68 -27 14 -35 13 -54 -8z"/>
  </g>
</svg>